<?xml version="1.0" standalone="no"?>
<!DOCTYPE svg PUBLIC "-//W3C//DTD SVG 20010904//EN"
 "http://www.w3.org/TR/2001/REC-SVG-20010904/DTD/svg10.dtd">
<svg version="1.0" xmlns="http://www.w3.org/2000/svg"
 width="64.000000pt" height="64.000000pt" viewBox="0 0 64.000000 64.000000"
 preserveAspectRatio="xMidYMid meet">

<g transform="translate(0.000000,64.000000) scale(0.100000,-0.100000)"
fill="#000000" stroke="none">
<path d="M222 509 c-23 -17 -42 -32 -42 -33 0 -2 18 -17 39 -34 l39 -31 46 35
c50 38 55 52 28 77 -28 25 -63 21 -110 -14z"/>
<path d="M0 381 l0 -71 196 -146 c108 -80 201 -147 208 -150 10 -4 189 116
224 150 9 9 12 34 10 79 l-3 67 -114 -80 c-62 -44 -119 -77 -125 -73 -9 6
-344 255 -383 286 -10 7 -13 -6 -13 -62z"/>
<path d="M397 396 c-26 -18 -50 -36 -53 -38 -3 -3 14 -20 36 -38 47 -37 54
-36 125 24 l40 34 -24 26 c-32 35 -65 32 -124 -8z"/>
</g>
</svg>
